<svg width="45" height="36" viewBox="0 0 45 36" fill="none" xmlns="http://www.w3.org/2000/svg">
<path d="M41.2594 21.1865L44.9526 6.56149C45.2192 5.50554 44.3274 4.5 43.1242 4.5H12.4381L11.722 1.3493C11.5436 0.563977 10.7758 0 9.88508 0H1.875C0.839453 0 0 0.755508 0 1.6875V2.8125C0 3.74449 0.839453 4.5 1.875 4.5H7.33461L12.8227 28.6478C11.5098 29.3273 10.625 30.6015 10.625 32.0625C10.625 34.2371 12.5837 36 15 36C17.4163 36 19.375 34.2371 19.375 32.0625C19.375 30.9604 18.8713 29.9647 18.0606 29.25H34.4393C33.6287 29.9647 33.125 30.9604 33.125 32.0625C33.125 34.2371 35.0838 36 37.5 36C39.9162 36 41.875 34.2371 41.875 32.0625C41.875 30.5035 40.8681 29.1563 39.4079 28.5184L39.8389 26.8115C40.1055 25.7555 39.2137 24.75 38.0105 24.75H17.0404L16.5291 22.5H39.431C40.3065 22.5 41.0654 21.9548 41.2594 21.1865Z" fill="#FFD803"/>
</svg>
