<svg width="41" height="32" viewBox="0 0 41 32" fill="none" xmlns="http://www.w3.org/2000/svg">
<path d="M38.5571 22.418H12.3877L13.7017 20.0391L35.5337 20.0039C36.272 20.0039 36.9048 19.5352 37.0366 18.8867L40.0601 3.84375C40.1392 3.44922 40.0205 3.04297 39.7305 2.73438C39.5871 2.5825 39.4083 2.46016 39.2065 2.37585C39.0046 2.29153 38.7846 2.24726 38.5615 2.24609L10.7881 2.16406L10.5508 1.17188C10.4014 0.539062 9.75977 0.078125 9.03028 0.078125H2.24072C1.8293 0.078125 1.43473 0.223402 1.14381 0.481997C0.85289 0.740592 0.689453 1.09132 0.689453 1.45703C0.689453 1.82274 0.85289 2.17347 1.14381 2.43207C1.43473 2.69066 1.8293 2.83594 2.24072 2.83594H7.77344L8.81055 7.21875L11.3638 18.207L8.07666 22.9766C7.90596 23.1814 7.80314 23.4245 7.77984 23.6786C7.75654 23.9326 7.81369 24.1874 7.94483 24.4141C8.2085 24.8789 8.74024 25.1719 9.3291 25.1719H12.0889C11.5005 25.8665 11.1827 26.7126 11.1836 27.582C11.1836 29.793 13.2051 31.5898 15.6924 31.5898C18.1797 31.5898 20.2012 29.793 20.2012 27.582C20.2012 26.7109 19.876 25.8633 19.2959 25.1719H26.3755C25.7872 25.8665 25.4694 26.7126 25.4702 27.582C25.4702 29.793 27.4917 31.5898 29.979 31.5898C32.4663 31.5898 34.4878 29.793 34.4878 27.582C34.4878 26.7109 34.1626 25.8633 33.5825 25.1719H38.5615C39.4141 25.1719 40.1128 24.5547 40.1128 23.793C40.1103 23.4276 39.9453 23.078 39.6538 22.8204C39.3624 22.5629 38.9681 22.4182 38.5571 22.418ZM11.4341 4.88281L36.7378 4.95703L34.2593 17.293L14.3828 17.3242L11.4341 4.88281ZM15.6924 28.8164C14.9277 28.8164 14.3037 28.2617 14.3037 27.582C14.3037 26.9023 14.9277 26.3477 15.6924 26.3477C16.457 26.3477 17.0811 26.9023 17.0811 27.582C17.0811 27.9094 16.9348 28.2234 16.6743 28.4549C16.4139 28.6864 16.0607 28.8164 15.6924 28.8164ZM29.979 28.8164C29.2144 28.8164 28.5903 28.2617 28.5903 27.582C28.5903 26.9023 29.2144 26.3477 29.979 26.3477C30.7437 26.3477 31.3677 26.9023 31.3677 27.582C31.3677 27.9094 31.2214 28.2234 30.961 28.4549C30.7005 28.6864 30.3473 28.8164 29.979 28.8164Z" fill="#BAE8E8"/>
</svg>
