<svg width="37" height="34" viewBox="0 0 37 34" fill="none" xmlns="http://www.w3.org/2000/svg">
<path d="M35.7588 7.18594C35.1959 5.85235 34.3843 4.64386 33.3694 3.62813C32.3538 2.60936 31.1563 1.79977 29.8421 1.24336C28.4793 0.664111 27.0177 0.367618 25.5421 0.371093C23.4719 0.371093 21.4521 0.951172 19.6968 2.04687C19.2769 2.30898 18.8779 2.59688 18.5 2.91055C18.1221 2.59688 17.7231 2.30898 17.3032 2.04687C15.5479 0.951172 13.5281 0.371093 11.4579 0.371093C9.96719 0.371093 8.52266 0.663281 7.15791 1.24336C5.83935 1.80195 4.65098 2.60547 3.63057 3.62813C2.61434 4.64271 1.80255 5.85149 1.24121 7.18594C0.65752 8.57383 0.359375 10.0477 0.359375 11.5645C0.359375 12.9953 0.644922 14.4863 1.21182 16.0031C1.68633 17.2707 2.3666 18.5855 3.23584 19.9133C4.61318 22.0145 6.50703 24.2059 8.85859 26.4274C12.7555 30.1098 16.6146 32.6535 16.7783 32.7566L17.7735 33.4098C18.2145 33.6977 18.7813 33.6977 19.2223 33.4098L20.2175 32.7566C20.3813 32.6492 24.2361 30.1098 28.1372 26.4274C30.4888 24.2059 32.3826 22.0145 33.76 19.9133C34.6292 18.5855 35.3137 17.2707 35.784 16.0031C36.3509 14.4863 36.6364 12.9953 36.6364 11.5645C36.6406 10.0477 36.3425 8.57383 35.7588 7.18594Z" fill="#FFD803"/>
</svg>
