<svg width="42" height="38" viewBox="0 0 42 38" fill="none" xmlns="http://www.w3.org/2000/svg">
<path d="M40.2656 8.29375C39.6373 6.83893 38.7313 5.52058 37.5984 4.4125C36.4647 3.30112 35.1279 2.41793 33.6609 1.81094C32.1397 1.17903 30.5082 0.855586 28.8609 0.859377C26.55 0.859377 24.2953 1.49219 22.3359 2.6875C21.8672 2.97344 21.4219 3.2875 21 3.62969C20.5781 3.2875 20.1328 2.97344 19.6641 2.6875C17.7047 1.49219 15.45 0.859377 13.1391 0.859377C11.475 0.859377 9.8625 1.17813 8.33906 1.81094C6.86719 2.42032 5.54062 3.29688 4.40156 4.4125C3.26717 5.51933 2.36099 6.83799 1.73438 8.29375C1.08281 9.80782 0.75 11.4156 0.75 13.0703C0.75 14.6313 1.06875 16.2578 1.70156 17.9125C2.23125 19.2953 2.99062 20.7297 3.96094 22.1781C5.49844 24.4703 7.6125 26.8609 10.2375 29.2844C14.5875 33.3016 18.8953 36.0766 19.0781 36.1891L20.1891 36.9016C20.6813 37.2156 21.3141 37.2156 21.8063 36.9016L22.9172 36.1891C23.1 36.0719 27.4031 33.3016 31.7578 29.2844C34.3828 26.8609 36.4969 24.4703 38.0344 22.1781C39.0047 20.7297 39.7687 19.2953 40.2937 17.9125C40.9266 16.2578 41.2453 14.6313 41.2453 13.0703C41.25 11.4156 40.9172 9.80782 40.2656 8.29375ZM21 33.1938C21 33.1938 4.3125 22.5016 4.3125 13.0703C4.3125 8.29375 8.26406 4.42188 13.1391 4.42188C16.5656 4.42188 19.5375 6.33438 21 9.12813C22.4625 6.33438 25.4344 4.42188 28.8609 4.42188C33.7359 4.42188 37.6875 8.29375 37.6875 13.0703C37.6875 22.5016 21 33.1938 21 33.1938Z" fill="#FFD803"/>
</svg>
