<svg width="48" height="55" viewBox="0 0 48 55" fill="none" xmlns="http://www.w3.org/2000/svg">
<path fill-rule="evenodd" clip-rule="evenodd" d="M47.5625 10.875C47.5625 11.8364 47.1806 12.7584 46.5008 13.4383C45.8209 14.1181 44.8989 14.5 43.9375 14.5H42.125V47.125C42.125 49.0478 41.3612 50.8919 40.0015 52.2515C38.6419 53.6112 36.7978 54.375 34.875 54.375H13.125C11.2022 54.375 9.35811 53.6112 7.99848 52.2515C6.63884 50.8919 5.875 49.0478 5.875 47.125V14.5H4.0625C3.10109 14.5 2.17906 14.1181 1.49924 13.4383C0.819418 12.7584 0.4375 11.8364 0.4375 10.875V7.25C0.4375 6.28859 0.819418 5.36656 1.49924 4.68674C2.17906 4.00692 3.10109 3.625 4.0625 3.625H16.75C16.75 2.66359 17.1319 1.74156 17.8117 1.06174C18.4916 0.381919 19.4136 0 20.375 0L27.625 0C28.5864 0 29.5084 0.381919 30.1883 1.06174C30.8681 1.74156 31.25 2.66359 31.25 3.625H43.9375C44.8989 3.625 45.8209 4.00692 46.5008 4.68674C47.1806 5.36656 47.5625 6.28859 47.5625 7.25V10.875ZM9.92775 14.5L9.5 14.7139V47.125C9.5 48.0864 9.88192 49.0084 10.5617 49.6883C11.2416 50.3681 12.1636 50.75 13.125 50.75H34.875C35.8364 50.75 36.7584 50.3681 37.4383 49.6883C38.1181 49.0084 38.5 48.0864 38.5 47.125V14.7139L38.0723 14.5H9.92775ZM4.0625 10.875V7.25H43.9375V10.875H4.0625Z" fill="#BAE8E8"/>
</svg>
